<?xml version="1.0" standalone="no"?>
<!DOCTYPE svg PUBLIC "-//W3C//DTD SVG 20010904//EN"
 "http://www.w3.org/TR/2001/REC-SVG-20010904/DTD/svg10.dtd">
<svg version="1.0" xmlns="http://www.w3.org/2000/svg"
 width="1024.000000pt" height="1024.000000pt" viewBox="0 0 1024.000000 1024.000000"
 preserveAspectRatio="xMidYMid meet">

<g transform="translate(0.000000,1024.000000) scale(0.100000,-0.100000)"
fill="#000000" stroke="none">
<path d="M4615 8352 c-93 -44 -223 -238 -292 -436 -48 -138 -39 -298 24 -423
26 -52 26 -53 8 -74 -27 -29 -147 -102 -235 -142 -157 -73 -369 -103 -507 -74
-142 31 -232 97 -341 252 -77 110 -155 186 -227 221 -55 26 -69 29 -170 29
-241 0 -374 -91 -504 -344 -55 -108 -111 -273 -136 -401 -22 -114 -31 -374
-16 -481 7 -46 23 -123 37 -171 l25 -87 -44 -93 c-24 -51 -62 -116 -84 -144
-48 -60 -73 -106 -73 -134 0 -32 35 -149 63 -213 67 -149 221 -337 362 -442
124 -92 329 -185 505 -228 179 -45 282 -52 705 -51 444 1 451 1 995 98 463 82
681 107 769 90 69 -14 32 -28 -204 -74 -380 -74 -1092 -232 -1615 -360 -179
-44 -356 -86 -394 -95 -38 -8 -195 -52 -350 -96 -154 -44 -353 -96 -441 -115
-322 -69 -481 -137 -615 -262 -146 -135 -209 -231 -271 -412 -32 -91 -33 -101
-33 -250 0 -178 15 -257 67 -353 40 -76 114 -157 189 -208 58 -40 190 -107
250 -128 42 -15 33 -22 -79 -66 -82 -31 -445 -125 -485 -125 -9 0 -19 -8 -23
-17 -4 -10 -9 -108 -12 -218 -6 -226 4 -290 59 -403 76 -154 195 -229 419
-263 189 -29 492 67 693 220 86 65 198 182 279 291 38 52 77 101 86 107 26 22
32 -5 26 -107 -7 -108 -16 -149 -51 -238 -27 -71 -30 -89 -12 -75 30 23 114
47 336 94 130 28 266 60 302 72 36 11 97 23 135 26 l70 6 -3 29 c-4 39 16 267
30 329 11 52 22 61 87 71 l44 7 -6 -83 c-6 -74 -22 -178 -43 -276 -6 -32 -6
-32 17 -23 13 6 150 38 304 71 154 33 307 70 340 81 33 11 85 22 116 26 l56 6
6 196 c6 190 12 251 26 251 8 0 34 -50 104 -200 30 -63 63 -126 74 -139 l20
-24 214 52 c118 29 243 61 278 72 35 11 123 33 195 50 72 17 165 39 206 49 85
20 387 98 500 129 41 12 185 48 320 81 518 127 577 147 735 251 101 67 237
189 283 254 l21 30 1 -76 c0 -50 -7 -98 -20 -139 -11 -34 -20 -67 -20 -71 0
-16 39 -10 133 20 179 56 1327 331 1383 331 2 0 4 21 4 48 0 26 5 79 10 117 5
39 14 138 20 220 9 125 28 277 55 438 l5 29 -31 -26 c-30 -26 -59 -36 -344
-119 -210 -62 -208 -61 -201 -40 5 17 26 141 26 155 0 22 143 67 328 104 21 4
23 8 16 32 -5 15 -8 50 -8 77 1 101 25 383 44 514 11 74 18 136 16 138 -1 2
-25 -6 -52 -16 -98 -39 -275 -89 -271 -77 3 7 8 42 12 78 8 76 7 76 138 108
45 12 148 42 229 68 118 37 145 49 136 59 -7 9 -9 51 -5 131 8 142 44 501 57
557 5 22 8 41 6 42 -1 2 -128 -29 -282 -68 -153 -39 -360 -88 -459 -110 -99
-22 -215 -48 -259 -59 -129 -34 -122 -23 76 109 244 164 524 427 669 630 156
220 223 476 174 665 -19 74 -80 191 -112 216 -77 60 -226 81 -429 60 -138 -14
-171 -20 -479 -90 -126 -29 -258 -58 -292 -66 -93 -20 -521 -76 -695 -90 -47
-3 -102 -4 -122 0 -34 7 -36 9 -36 46 0 49 -23 75 -79 90 -49 13 -93 -3 -133
-48 l-26 -30 -64 23 c-35 12 -89 28 -120 35 -55 13 -57 14 -60 48 -4 51 -43
77 -116 77 -42 0 -67 -6 -93 -23 -20 -12 -41 -22 -47 -22 -14 0 -138 102 -164
135 -43 55 -144 81 -214 55 -23 -9 -32 -6 -71 26 -53 44 -102 63 -160 64 -36
0 -45 5 -72 39 -17 21 -34 54 -37 73 -11 55 -31 84 -81 117 -61 41 -115 55
-185 47 l-57 -6 -113 78 c-62 43 -167 118 -234 168 -66 50 -140 99 -165 109
-66 27 -193 31 -244 7z m275 -199 c56 -43 142 -107 192 -142 50 -36 86 -67 80
-69 -23 -7 -119 46 -179 100 -119 106 -240 105 -310 -2 -13 -19 -30 -44 -39
-55 -9 -11 -23 -36 -31 -55 -8 -19 -20 -47 -26 -62 -7 -16 -18 -29 -24 -29 -7
-1 -18 -2 -24 -3 -6 0 -25 -35 -41 -76 -28 -68 -30 -80 -21 -132 10 -62 1 -66
-24 -10 -24 57 -22 163 6 247 37 110 117 266 158 309 46 47 64 55 130 55 50 1
56 -2 153 -76z m638 -255 c24 -24 11 -32 -101 -63 -32 -9 -70 -21 -85 -27 -15
-6 -33 -12 -40 -14 -19 -4 -107 -62 -127 -84 -10 -11 -37 -31 -61 -45 -24 -14
-49 -36 -55 -48 -14 -25 -18 -28 84 56 53 43 92 66 57 33 -54 -49 -179 -144
-184 -139 -14 15 -3 39 46 99 81 101 203 195 293 226 58 20 156 23 173 6z m55
-120 c14 -21 -7 -91 -63 -212 -72 -156 -81 -84 -15 122 38 116 52 132 78 90z
m-535 -17 c10 -6 0 -17 -35 -40 -59 -38 -139 -109 -103 -91 l24 13 -27 -32
c-37 -44 -51 -100 -37 -150 11 -42 50 -81 81 -81 22 0 25 -22 6 -38 -17 -14
-117 -27 -117 -15 0 5 -13 16 -29 26 -24 14 -43 16 -107 10 -85 -7 -67 4 -214
-131 -36 -33 -96 -85 -135 -117 -38 -32 -61 -55 -50 -52 11 3 52 8 90 11 l70
5 -35 -16 c-49 -22 -145 -42 -162 -32 -8 4 -25 2 -39 -6 -83 -47 -199 -98
-280 -122 -86 -25 -108 -28 -259 -28 -197 0 -280 19 -400 91 -154 93 -200 130
-200 161 0 25 43 13 94 -26 64 -49 188 -116 242 -130 144 -38 359 -30 505 19
207 69 337 161 637 453 118 115 239 227 269 249 77 59 177 91 211 69z m1069
-208 c8 -22 -43 -58 -109 -78 -68 -20 -76 -27 -109 -92 -29 -59 -42 -55 -37
10 6 73 40 127 79 127 17 0 51 11 77 25 48 26 92 29 99 8z m-3282 -4 c85 -21
185 -134 189 -212 l2 -40 -23 29 c-108 134 -146 160 -222 151 -39 -4 -52 -12
-84 -49 -41 -45 -77 -98 -77 -111 0 -11 35 9 66 38 15 14 39 25 53 25 22 0 16
-6 -34 -35 -33 -20 -67 -38 -76 -41 -9 -3 -22 -17 -28 -31 -10 -22 -9 -24 9
-18 30 10 24 -10 -14 -42 -33 -28 -62 -71 -53 -79 2 -3 23 0 46 5 33 7 45 6
56 -6 20 -19 19 -33 -1 -33 -57 0 -144 -51 -144 -84 0 -13 5 -13 43 -1 92 31
162 43 174 30 9 -10 -1 -18 -45 -38 -31 -14 -75 -30 -97 -37 -71 -22 -125 -57
-125 -81 0 -17 38 -9 221 51 101 33 191 57 201 54 18 -5 165 43 174 57 3 5 13
9 22 9 30 0 -17 -25 -121 -64 -54 -20 -115 -45 -135 -55 -21 -10 -82 -33 -137
-50 -55 -18 -128 -45 -162 -61 -56 -27 -63 -33 -63 -59 l0 -29 48 22 c92 44
291 105 343 106 25 0 18 -30 -10 -44 -14 -7 -91 -35 -171 -61 -80 -26 -164
-58 -186 -71 -38 -22 -61 -50 -50 -62 3 -2 90 25 193 62 244 85 310 103 325
88 22 -22 -12 -38 -232 -112 -118 -40 -227 -79 -242 -87 -29 -14 -39 -53 -14
-53 16 0 219 68 411 139 142 52 169 58 194 42 16 -11 -10 -24 -149 -73 -47
-17 -98 -37 -114 -45 -15 -8 -84 -34 -152 -58 -149 -53 -204 -80 -204 -100 0
-12 7 -14 28 -9 134 32 194 52 316 104 196 82 329 130 362 130 16 -1 40 -7 54
-15 l25 -14 -33 -1 c-19 0 -64 -13 -101 -29 -37 -17 -101 -41 -142 -54 -40
-14 -120 -46 -175 -71 -56 -26 -148 -64 -205 -84 -75 -27 -105 -43 -107 -56
-7 -35 13 -37 104 -10 49 14 97 29 107 31 31 9 18 -22 -15 -36 -134 -55 -158
-70 -158 -95 0 -15 4 -26 8 -26 4 0 48 18 97 40 50 22 95 40 101 40 6 0 24 7
41 15 45 23 166 65 185 65 9 0 18 6 20 12 3 7 22 13 45 13 23 0 39 3 37 7 -2
3 1 10 7 14 8 4 9 3 5 -4 -4 -7 -1 -12 8 -12 8 0 18 5 21 10 3 6 15 10 26 10
11 0 17 -4 14 -10 -3 -5 -13 -10 -21 -10 -13 0 -86 -29 -127 -51 -10 -6 -49
-21 -85 -34 -37 -12 -117 -41 -178 -62 -111 -39 -164 -65 -164 -82 0 -20 122
6 325 70 50 15 102 31 118 35 28 6 36 -6 15 -24 -21 -17 -226 -80 -356 -109
l-123 -28 30 -27 c19 -17 28 -33 25 -43 -9 -23 -17 -19 -56 33 -120 161 -175
407 -157 699 12 209 57 377 149 568 61 127 114 179 215 211 51 16 57 16 110 3z
m2882 -185 c-13 -40 -35 -82 -55 -103 -26 -29 -52 -85 -56 -123 -1 -3 -5 -10
-10 -15 -5 -5 -6 -2 -1 6 5 9 4 12 -3 7 -7 -4 -12 -18 -12 -31 0 -16 -5 -23
-13 -19 -14 5 -104 -92 -99 -107 1 -5 -4 -9 -11 -9 -13 0 -43 -40 -39 -53 1
-5 -2 -5 -8 -2 -7 4 -22 -3 -36 -16 -41 -38 -27 -4 22 52 25 30 -57 -50 -183
-178 -205 -209 -360 -353 -484 -453 l-44 -35 25 31 c162 202 565 644 848 930
71 72 138 143 147 158 30 45 34 29 12 -40z m870 39 c5 -14 -73 -62 -146 -88
-49 -18 -59 -26 -78 -65 -11 -25 -27 -45 -35 -45 -18 0 -23 85 -6 107 18 24
207 108 237 105 14 -1 26 -7 28 -14z m-3782 -32 c-3 -5 0 -13 7 -17 15 -10
-80 -43 -105 -36 -16 4 -16 6 3 19 11 8 36 15 54 16 19 1 34 4 34 7 -1 12 2
20 8 20 3 0 3 -4 -1 -9z m6010 -19 c-6 -5 -46 -21 -90 -37 -44 -15 -111 -41
-150 -57 -117 -50 -404 -149 -1354 -469 -80 -27 -146 -47 -148 -45 -12 11 89
79 137 92 99 27 203 61 300 99 52 20 208 74 345 120 138 45 291 100 340 120
50 20 142 55 205 77 63 22 122 44 131 48 67 36 317 81 284 52z m140 -12 c0
-22 -219 -123 -465 -216 -63 -23 -182 -68 -265 -99 -82 -31 -226 -81 -320
-112 -93 -31 -323 -107 -510 -169 -188 -63 -351 -114 -363 -114 -28 0 -28 16
1 35 24 15 299 110 637 219 255 82 597 203 694 245 26 12 83 33 125 47 74 25
287 113 386 159 55 26 80 28 80 5z m255 -42 c21 -36 29 -158 10 -158 -5 0 -10
8 -10 19 0 23 -23 77 -50 116 -27 40 -25 55 5 55 18 0 31 -10 45 -32z m-3047
16 c4 -4 -91 -209 -109 -232 -1 -2 -13 -4 -27 -6 -28 -3 -57 -23 -57 -38 0 -6
7 -4 17 3 9 8 5 -4 -10 -28 -15 -24 -27 -47 -27 -52 0 -17 -89 -123 -172 -203
-43 -43 -76 -78 -73 -78 3 0 0 -6 -7 -14 -7 -8 -17 -13 -23 -13 -5 1 -9 -4 -7
-12 2 -8 -3 -11 -13 -8 -8 4 -15 2 -15 -3 0 -6 -8 -10 -19 -10 -10 0 -31 -10
-47 -22 -15 -13 -24 -16 -20 -9 19 30 -61 -40 -152 -133 -54 -54 -124 -119
-157 -144 -33 -25 -79 -63 -102 -85 -85 -81 -49 -28 84 123 429 490 518 584
828 883 91 87 97 92 108 81z m895 -17 c9 -10 2 -26 -28 -66 -22 -29 -61 -91
-86 -138 -31 -56 -50 -81 -56 -75 -24 24 38 177 102 255 33 39 51 45 68 24z
m1417 7 c-5 -2 -64 -20 -130 -39 -131 -38 -799 -263 -855 -288 -59 -26 -311
-99 -318 -92 -4 4 7 19 24 34 21 19 74 42 165 71 74 23 199 67 279 97 80 30
190 68 245 83 55 15 119 35 142 44 90 32 265 78 330 85 76 9 133 12 118 5z
m540 -48 c0 -14 -28 -31 -120 -73 -146 -65 -260 -111 -380 -154 -49 -17 -106
-40 -126 -50 -36 -18 -354 -129 -504 -176 -44 -13 -116 -37 -160 -53 -44 -15
-154 -52 -245 -80 -91 -29 -208 -67 -260 -85 -198 -68 -310 -103 -310 -97 1
19 32 42 85 65 33 13 242 84 465 156 527 172 893 298 955 329 27 14 88 38 135
54 153 52 264 98 345 142 86 47 120 53 120 22z m-2391 -62 c14 -5 14 -8 -1
-22 -9 -9 -22 -17 -30 -18 -8 -1 -22 -11 -31 -21 -9 -11 -25 -22 -34 -26 -10
-3 -18 -11 -18 -17 0 -5 -5 -10 -11 -10 -5 0 -7 5 -4 10 3 6 1 10 -5 10 -18 0
30 60 64 81 33 20 45 22 70 13z m-3574 -25 c7 -11 10 -22 8 -24 -4 -4 -109
-35 -119 -35 -10 0 2 44 15 52 7 5 6 8 -4 8 -34 1 16 20 52 20 28 0 40 -5 48
-21z m6011 -13 c-7 -8 -38 -25 -69 -36 -32 -12 -79 -34 -107 -49 -46 -26 -217
-92 -310 -121 -22 -7 -62 -24 -90 -38 -53 -27 -323 -122 -650 -229 -110 -36
-229 -75 -265 -88 -274 -96 -664 -215 -705 -214 -5 0 2 10 17 23 26 24 63 37
243 91 50 15 142 44 205 65 63 21 252 84 420 139 375 123 699 235 731 252 22
11 147 59 329 124 61 22 164 69 220 100 29 16 50 4 31 -19z m-1291 -5 c-8 -5
-67 -21 -130 -36 -154 -36 -271 -71 -338 -101 -30 -13 -61 -24 -69 -24 -23 0
16 57 55 80 42 25 205 67 302 79 101 11 199 13 180 2z m-1299 -106 c5 4 9 -4
9 -17 0 -29 -46 -102 -86 -140 -16 -14 -39 -36 -51 -47 -13 -12 -26 -21 -30
-21 -10 -1 -44 -30 -63 -55 -14 -17 -13 -18 3 -12 21 8 22 -2 1 -31 -17 -24
-40 -29 -47 -9 -5 10 -11 -15 -9 -34 1 -3 -9 -5 -21 -4 -12 1 -30 -5 -39 -13
-12 -10 -18 -11 -18 -4 0 18 -68 -50 -71 -72 -2 -11 -11 -21 -19 -23 -13 -4
-13 -3 0 6 8 6 12 11 7 11 -4 0 -100 -94 -215 -208 -114 -115 -222 -221 -241
-235 -67 -52 -62 -26 11 56 41 45 110 125 154 177 43 52 111 129 150 170 38
41 109 120 155 175 146 170 258 278 329 317 52 28 67 32 73 21 5 -7 12 -11 18
-8z m304 -45 c-4 -16 -1 -54 5 -83 14 -61 3 -92 -46 -137 -24 -22 -26 -23 -20
-5 8 23 -30 -17 -149 -156 -81 -94 -192 -215 -336 -365 -43 -44 -120 -114
-171 -154 -67 -52 -83 -62 -57 -34 20 22 48 53 62 69 14 17 48 57 76 90 338
396 544 652 595 739 21 36 41 66 43 66 3 0 2 -13 -2 -30z m2220 20 c-3 -5 -12
-10 -18 -10 -7 0 -6 4 3 10 19 12 23 12 15 0z m-61 -35 c-12 -8 -48 -24 -80
-36 -33 -12 -68 -28 -79 -35 -11 -7 -55 -24 -99 -38 -43 -15 -92 -34 -109 -43
-17 -9 -68 -28 -112 -43 -44 -15 -165 -58 -270 -94 -315 -111 -345 -122 -490
-169 -648 -211 -905 -287 -905 -267 0 27 90 65 250 105 72 18 593 181 625 196
11 5 65 23 120 40 182 57 679 228 760 261 95 40 190 70 228 74 35 3 104 32 82
34 -19 2 50 28 75 29 24 1 24 1 4 -14z m188 -7 c-7 -7 -12 -8 -12 -2 0 14 12
26 19 19 2 -3 -1 -11 -7 -17z m-125 -173 c-108 -54 -129 -61 -121 -42 4 13
175 86 199 86 6 0 -29 -20 -78 -44z m-253 -2 c-33 -13 -81 -35 -109 -50 -27
-14 -70 -32 -95 -39 -25 -7 -83 -28 -130 -47 -148 -59 -270 -103 -425 -152
-82 -25 -179 -57 -215 -70 -113 -42 -509 -165 -737 -230 -51 -15 -97 -24 -103
-20 -5 3 -10 1 -10 -4 0 -6 -5 -11 -11 -11 -5 0 -7 5 -4 10 3 6 1 10 -6 10
-44 0 88 47 276 98 121 33 673 210 840 269 39 14 97 33 130 43 33 10 110 36
170 58 191 69 249 89 295 103 25 7 50 17 57 22 7 5 17 6 23 2 5 -3 10 -2 10 3
0 14 63 39 83 34 14 -4 3 -12 -39 -29z m-5141 -22 c14 -14 -15 -19 -155 -26
-80 -4 -119 -2 -123 5 -10 16 -1 22 42 31 50 11 223 3 236 -10z m732 -79 c-6
-5 -23 -14 -38 -20 -23 -10 -28 -10 -25 0 3 7 15 15 29 19 35 10 45 10 34 1z
m4345 -33 c0 -4 -12 -11 -27 -17 -16 -5 -80 -31 -144 -56 -64 -25 -121 -46
-127 -46 -6 0 -48 -16 -93 -35 -46 -19 -89 -35 -96 -35 -7 0 -50 -15 -95 -34
-102 -42 -441 -155 -603 -201 -66 -19 -147 -43 -179 -55 -33 -11 -96 -29 -140
-39 -45 -11 -101 -26 -126 -35 -48 -16 -76 -23 -155 -37 -27 -4 -69 -16 -92
-24 -58 -22 -90 -16 -45 9 19 9 39 15 45 13 7 -2 23 0 37 6 14 5 30 11 35 13
6 2 44 14 85 28 114 37 499 153 550 166 25 6 135 42 245 80 110 37 227 74 259
80 61 12 76 18 153 51 24 11 49 19 56 19 7 0 17 4 23 9 5 5 29 16 54 24 25 9
83 30 130 47 181 68 250 87 250 69z m-5392 -79 c-2 -8 -26 -24 -53 -35 -28
-11 -75 -31 -105 -44 -85 -37 -322 -121 -341 -121 -5 0 -9 5 -9 11 0 5 5 7 10
4 6 -3 10 0 10 8 0 25 254 121 288 110 6 -3 12 0 12 7 0 6 4 9 9 6 5 -4 11 -2
13 2 5 14 128 71 149 69 12 -1 18 -7 17 -17z m5482 15 c0 -12 -248 -115 -276
-115 -29 0 -12 18 34 36 79 30 227 83 235 83 4 1 7 -1 7 -4z m-5280 -51 c31
-7 30 -7 -32 -29 -34 -12 -108 -38 -162 -58 -54 -20 -103 -34 -108 -31 -4 3
-8 2 -8 -3 0 -4 -11 -13 -25 -20 -15 -6 -25 -7 -25 -1 0 5 20 18 45 29 25 11
45 24 45 28 0 9 104 58 165 77 48 15 62 16 105 8z m5265 -139 c-101 -88 -298
-230 -420 -303 -133 -79 -217 -121 -350 -172 -60 -23 -139 -53 -175 -67 -196
-76 -573 -158 -780 -170 -58 -3 -113 -9 -122 -14 -10 -6 -19 -5 -23 1 -7 11
-52 7 -150 -15 -38 -9 -88 -20 -110 -25 -53 -12 -245 17 -245 36 0 8 -9 14
-20 14 -11 0 -20 6 -20 14 0 24 -2 24 -259 56 -221 28 -496 75 -786 134 -93
19 -255 48 -360 63 -175 25 -213 28 -480 27 -216 0 -323 -5 -420 -18 -134 -18
-198 -33 -191 -44 2 -4 -10 -8 -27 -9 -62 -3 -230 -48 -235 -62 -3 -10 0 -12
13 -7 13 4 16 2 11 -9 -4 -12 3 -15 36 -15 42 0 48 -6 12 -13 -32 -6 -76 -17
-129 -32 -97 -28 -363 -84 -476 -101 -273 -40 -496 34 -657 220 -43 48 -51 63
-45 85 13 55 18 54 63 -6 81 -110 185 -178 329 -214 68 -17 105 -20 200 -17
127 5 121 3 376 108 381 157 589 206 970 231 299 19 586 -4 985 -81 506 -97
713 -130 980 -156 30 -3 65 -7 78 -9 12 -2 105 -9 205 -16 235 -15 535 -7 677
20 306 57 380 73 464 100 243 78 314 100 356 106 25 3 61 10 80 15 19 5 37 6
40 1 9 -14 120 40 120 58 0 9 -3 12 -8 6 -4 -5 -16 -11 -27 -13 -18 -2 -17 0
5 19 17 15 34 20 55 16 36 -5 57 1 49 14 -3 5 -1 8 4 7 9 -3 84 42 310 189 70
46 129 83 132 83 3 0 -13 -16 -35 -35z m-461 -6 c-47 -21 -114 -32 -114 -18 0
5 10 9 23 9 12 0 31 7 41 15 11 8 36 15 55 14 l36 -1 -41 -19z m-4959 -19 c3
-5 11 -10 16 -10 6 0 8 4 5 8 -3 5 2 9 10 9 8 0 13 -4 12 -9 -5 -15 -166 -67
-191 -61 -18 4 -19 3 -7 -6 13 -9 13 -11 -1 -11 -9 0 -21 6 -27 13 -9 10 3 17
51 32 34 10 68 20 76 21 7 1 18 7 24 13 14 14 24 14 32 1z m92 4 c-3 -3 -12
-4 -19 -1 -8 3 -5 6 6 6 11 1 17 -2 13 -5z m4688 -54 c-3 -5 -11 -10 -16 -10
-6 0 -7 5 -4 10 3 6 11 10 16 10 6 0 7 -4 4 -10z m-40 -10 c3 -5 -3 -10 -14
-10 -12 0 -21 5 -21 10 0 6 6 10 14 10 8 0 18 -4 21 -10z m-122 -37 c10 -9
-38 -31 -127 -57 -45 -13 -166 -49 -271 -79 -190 -56 -579 -157 -602 -157 -24
0 -13 20 15 26 15 3 77 21 137 39 190 58 804 231 831 234 6 0 14 -2 17 -6z
m-4578 -13 c7 -11 -22 -24 -112 -50 -66 -18 -111 -10 -58 10 83 32 116 40 141
34 19 -5 25 -4 20 5 -4 6 -5 11 -2 11 3 0 8 -5 11 -10z m160 -59 c-15 -14
-157 -62 -164 -56 -8 8 20 25 42 25 10 0 28 5 40 12 18 9 41 17 87 27 2 1 0
-3 -5 -8z m4504 -4 c-6 -5 -167 -57 -175 -57 -18 0 10 13 87 40 46 16 85 27
88 24 2 -2 2 -5 0 -7z m-4921 -25 c16 -11 -3 -20 -143 -66 -61 -20 -126 -35
-145 -35 -19 1 -27 3 -17 6 10 3 76 27 145 54 136 52 140 53 160 41z m4641
-66 c-6 -6 -146 -47 -179 -52 l-25 -4 25 11 c58 26 195 60 179 45z m446 -6
c-3 -5 -14 -10 -24 -10 -9 0 -23 -6 -31 -12 -12 -11 -12 -10 -1 4 7 9 22 19
34 21 12 2 23 5 25 6 2 0 0 -3 -3 -9z m-688 -66 c-3 -3 -12 -4 -19 -1 -8 3 -5
6 6 6 11 1 17 -2 13 -5z m-5214 -187 c15 -34 122 -139 195 -189 119 -82 268
-118 493 -118 87 0 190 7 245 15 53 9 99 14 101 11 11 -11 -322 -107 -475
-137 -105 -20 -88 -33 35 -25 76 5 145 17 229 40 65 19 146 39 179 46 33 6 80
19 105 27 63 21 140 40 170 41 47 2 94 14 131 33 35 17 59 25 167 50 23 6 42
14 42 19 0 24 207 62 277 51 35 -6 28 -9 -97 -48 -74 -23 -202 -64 -285 -92
-82 -29 -188 -61 -235 -72 -47 -11 -133 -36 -192 -55 -59 -19 -113 -34 -120
-34 -21 0 -272 -72 -282 -82 -27 -23 193 10 314 48 86 26 244 64 373 89 66 13
91 15 100 6 8 -8 7 -11 -6 -11 -9 0 -17 -4 -17 -9 0 -5 -33 -18 -72 -30 -40
-11 -120 -36 -178 -55 -88 -30 -303 -92 -375 -109 -14 -3 -11 -5 10 -6 17 0
84 11 150 25 129 27 252 51 435 86 63 12 117 25 120 28 3 4 14 9 25 13 11 3
53 17 94 32 50 18 88 26 118 23 23 -2 44 1 46 7 2 6 13 5 28 -3 l24 -12 -24 6
c-14 4 -21 2 -17 -4 3 -6 -29 -19 -77 -31 -45 -12 -158 -46 -252 -76 -93 -29
-204 -61 -245 -70 -119 -26 -230 -57 -236 -66 -10 -16 56 -9 149 16 130 35
557 116 570 108 13 -8 -82 -45 -100 -39 -8 3 -11 1 -8 -4 3 -6 -3 -10 -14 -10
-11 0 -23 -4 -26 -10 -3 -5 -15 -10 -25 -10 -10 0 -69 -16 -132 -36 -62 -19
-134 -38 -160 -41 -27 -3 -48 -9 -48 -14 0 -16 229 11 360 42 31 8 56 8 80 1
l35 -10 -37 -1 c-20 -1 -40 -5 -43 -11 -3 -5 -22 -10 -41 -10 -19 0 -34 -4
-34 -10 0 -6 -31 -10 -72 -11 -143 -2 -26 -17 147 -19 161 -2 168 -2 135 -17
-47 -20 -459 -19 -643 2 -232 27 -467 95 -647 185 -73 37 -225 142 -325 224
-27 23 -46 35 -41 29 5 -9 0 -13 -16 -13 -27 0 -60 39 -110 130 -55 100 -57
129 -10 183 20 22 19 22 35 -16z m1655 12 l47 -1 -45 -8 c-25 -4 -73 -10 -108
-13 -35 -4 -66 -8 -70 -10 -4 -3 -16 -1 -27 4 -16 6 -12 8 17 8 20 1 39 5 42
9 3 5 22 9 43 10 21 1 40 7 42 14 3 10 5 10 9 1 2 -8 23 -13 50 -14z m5229
-78 c-4 -16 -12 -107 -19 -201 -10 -135 -16 -173 -28 -180 -8 -4 -53 -15 -100
-25 -47 -9 -137 -29 -200 -45 -63 -15 -163 -38 -221 -50 l-106 -22 -11 -146
c-7 -81 -17 -198 -22 -261 -6 -62 -9 -115 -8 -117 7 -6 354 68 402 87 27 10
52 17 54 14 2 -2 -1 -77 -7 -167 -6 -90 -11 -173 -11 -184 0 -24 4 -23 -276
-90 l-201 -47 -17 -146 c-14 -128 -36 -365 -36 -397 0 -14 141 15 445 93 121
31 226 56 234 57 18 1 17 -34 -6 -261 l-17 -162 -40 -6 c-38 -6 -275 -59 -481
-106 -49 -12 -135 -34 -190 -50 -120 -34 -418 -109 -422 -106 -1 1 5 47 12
102 8 55 21 195 30 310 8 116 20 246 25 290 5 44 19 181 30 305 12 124 28 288
36 365 17 166 48 477 69 701 11 115 13 168 5 188 -5 15 -10 29 -10 31 0 1 17
6 38 9 105 19 562 125 780 181 136 34 253 63 261 64 10 1 12 -7 8 -28z m-4307
-105 c0 -9 -111 -37 -120 -31 -6 3 -10 1 -10 -4 0 -6 -5 -11 -11 -11 -22 0 13
30 45 39 33 10 96 14 96 7z m-1230 -27 c-52 -10 -100 -21 -108 -24 -7 -2 -11
-1 -8 3 3 5 31 14 63 21 32 7 63 15 68 16 6 2 26 3 45 3 19 0 -8 -8 -60 -19z
m1030 -32 c11 3 20 3 20 0 0 -3 -36 -17 -80 -31 -45 -14 -102 -36 -128 -47
-50 -24 -206 -59 -259 -59 -18 0 -33 5 -33 11 0 7 11 9 30 6 19 -4 29 -3 27 4
-2 13 0 14 108 35 79 16 124 30 197 64 21 10 49 16 63 15 14 -2 25 2 26 8 0 9
2 9 5 1 3 -7 14 -10 24 -7z m-410 -6 l24 -7 -29 -12 c-97 -38 -362 -102 -396
-95 -30 6 -40 23 -14 23 8 0 23 4 33 9 9 5 54 19 99 30 44 11 105 29 135 40
55 20 105 24 148 12z m-840 -21 c-8 -5 -22 -9 -30 -9 -10 0 -8 3 5 9 27 12 43
12 25 0z m1369 -51 c-25 -16 -163 -57 -214 -63 -27 -3 -43 -3 -35 1 8 3 17 9
20 13 12 17 207 73 222 64 5 -3 8 1 9 8 0 10 2 10 6 -1 3 -7 -1 -17 -8 -22z
m899 -36 c-15 -2 -42 -2 -60 0 -18 2 -6 4 27 4 33 0 48 -2 33 -4z m1908 -165
c63 -33 119 -94 152 -167 36 -78 40 -206 14 -486 -12 -121 -24 -265 -27 -320
-14 -214 -71 -699 -91 -765 -50 -169 -182 -333 -349 -434 -79 -47 -145 -75
-255 -105 -125 -36 -665 -169 -668 -166 -2 2 3 48 12 102 8 54 22 181 31 283
22 259 62 664 91 930 55 495 93 867 94 904 0 22 -7 47 -16 57 -19 21 -26 18
151 55 101 20 430 98 580 137 11 3 67 5 125 3 91 -2 112 -6 156 -28z m-1306
-222 c0 -2 -7 -19 -15 -39 -8 -19 -19 -85 -25 -146 -6 -60 -12 -116 -15 -123
-4 -13 -21 -215 -51 -603 -8 -110 -19 -249 -25 -310 -5 -60 -18 -220 -29 -355
-11 -135 -22 -262 -25 -283 -11 -80 -35 -344 -35 -394 0 -46 -3 -53 -22 -58
-111 -25 -202 -47 -306 -74 -68 -18 -126 -30 -129 -27 -3 3 2 24 11 48 15 42
30 181 61 553 19 240 33 373 50 500 8 55 21 190 30 300 8 110 20 238 25 285
20 179 39 379 46 473 6 91 5 100 -15 128 l-22 29 23 0 c34 0 373 69 416 85 40
15 52 17 52 11z m-995 -306 c90 -25 169 -109 200 -213 34 -114 1 -570 -52
-726 -31 -93 -134 -229 -227 -300 l-53 -41 38 -128 c21 -70 83 -260 139 -422
56 -162 102 -302 103 -310 2 -11 -39 -25 -158 -57 -88 -23 -180 -45 -205 -49
l-45 -6 -54 154 c-30 84 -89 248 -131 363 -43 116 -86 236 -95 269 -17 58 -17
58 -51 53 -18 -3 -46 -12 -61 -19 -25 -12 -26 -16 -24 -83 2 -70 -24 -347 -60
-635 -10 -85 -19 -176 -19 -202 l0 -46 -42 -10 c-47 -10 -313 -77 -365 -91
-36 -10 -38 -8 -23 35 5 16 21 162 35 324 15 162 31 336 35 385 24 245 31 312
35 335 3 14 12 102 20 195 8 94 22 235 30 315 56 538 66 692 46 729 -9 15 -1
19 62 29 40 7 149 30 242 52 368 87 471 110 505 113 53 5 131 -1 175 -13z
m-1106 -242 c-4 -29 -8 -91 -9 -138 -2 -96 -13 -196 -22 -206 -10 -9 -274 -73
-334 -80 l-52 -6 -6 -112 c-10 -164 -25 -385 -36 -521 -5 -66 -17 -208 -25
-315 -9 -107 -32 -350 -52 -540 -21 -190 -37 -373 -37 -407 l-1 -61 -60 -12
c-33 -7 -130 -30 -215 -50 -85 -21 -156 -37 -157 -36 -1 1 2 31 7 66 12 82 37
328 50 490 27 343 43 521 75 805 37 339 53 575 38 575 -32 0 -331 -73 -350
-86 l-24 -15 5 73 c18 244 18 274 -2 298 l-19 24 86 23 c47 13 163 41 256 63
417 99 857 208 864 216 2 2 10 4 16 4 8 0 9 -15 4 -52z m-1553 -379 c116 -21
189 -89 219 -205 17 -66 21 -304 5 -304 -17 0 -374 -131 -388 -142 -7 -6 -14
-9 -17 -6 -2 2 0 46 5 97 11 101 6 120 -36 147 -48 32 -167 -1 -226 -63 -51
-53 -75 -219 -43 -287 17 -36 60 -63 280 -176 249 -129 305 -171 346 -264 24
-54 40 -158 34 -221 -3 -27 -10 -113 -15 -190 -12 -154 -38 -267 -76 -332 -79
-136 -239 -284 -371 -345 -140 -63 -342 -98 -454 -78 -195 35 -291 174 -290
417 1 137 4 149 49 161 20 6 91 24 157 42 66 17 144 40 173 51 29 10 55 19 57
19 3 0 5 -54 5 -120 0 -119 0 -121 25 -132 36 -16 167 13 220 50 64 45 77 77
91 236 15 158 13 184 -19 214 -13 12 -99 58 -192 102 -270 129 -276 132 -332
183 -36 34 -65 73 -90 125 l-38 76 0 131 c1 182 17 258 79 379 42 83 66 116
136 186 47 47 110 100 141 118 120 68 326 127 490 141 8 0 42 -4 75 -10z"/>
<path d="M4620 8048 c-12 -22 -12 -22 6 -6 10 10 15 20 12 24 -4 3 -12 -5 -18
-18z"/>
<path d="M4620 8009 c-7 -11 -10 -23 -7 -25 2 -2 9 7 15 21 14 30 7 33 -8 4z"/>
<path d="M5527 7092 c-15 -15 -27 -32 -27 -37 0 -5 14 5 30 23 28 31 35 42 27
42 -2 0 -15 -13 -30 -28z"/>
<path d="M5564 6628 c-4 -5 -4 -11 -1 -14 6 -6 37 6 37 15 0 11 -30 9 -36 -1z"/>
<path d="M3416 6534 c-11 -8 -16 -14 -10 -14 13 0 39 18 34 24 -3 2 -14 -2
-24 -10z"/>
<path d="M3346 6511 c-3 -4 6 -6 19 -3 14 2 25 6 25 8 0 8 -39 4 -44 -5z"/>
<path d="M8075 6040 c-3 -5 -1 -10 4 -10 6 0 11 5 11 10 0 6 -2 10 -4 10 -3 0
-8 -4 -11 -10z"/>
<path d="M8290 3979 c-12 -9 -11 -10 7 -6 22 5 22 4 19 -97 -3 -78 -2 -89 4
-46 4 30 8 79 9 108 1 54 -8 63 -39 41z"/>
<path d="M8940 3870 c-24 -8 -24 -8 7 -9 30 -1 32 -3 36 -43 3 -41 4 -41 5 10
2 55 0 57 -48 42z"/>
<path d="M8778 3823 c7 -3 16 -2 19 1 4 3 -2 6 -13 5 -11 0 -14 -3 -6 -6z"/>
<path d="M8738 3813 c7 -3 16 -2 19 1 4 3 -2 6 -13 5 -11 0 -14 -3 -6 -6z"/>
<path d="M8698 3803 c7 -3 16 -2 19 1 4 3 -2 6 -13 5 -11 0 -14 -3 -6 -6z"/>
<path d="M8588 3773 c7 -3 16 -2 19 1 4 3 -2 6 -13 5 -11 0 -14 -3 -6 -6z"/>
<path d="M8302 3745 c0 -16 2 -22 5 -12 2 9 2 23 0 30 -3 6 -5 -1 -5 -18z"/>
<path d="M8538 3763 c6 -2 18 -2 25 0 6 3 1 5 -13 5 -14 0 -19 -2 -12 -5z"/>
<path d="M8415 3739 c-66 -17 -46 -17 53 0 44 8 69 22 36 20 -10 0 -50 -9 -89
-20z"/>
<path d="M7124 4953 l-121 -26 -12 -136 c-7 -75 -17 -165 -22 -201 -5 -36 -16
-166 -24 -290 -8 -124 -21 -281 -29 -350 -23 -197 -49 -491 -44 -496 8 -8 218
46 258 66 41 21 87 70 101 108 10 25 28 180 54 452 8 91 24 237 35 325 35 284
50 426 50 475 0 100 -51 115 -246 73z"/>
<path d="M7410 4090 c-18 -12 -2 -12 25 0 13 6 15 9 5 9 -8 0 -22 -4 -30 -9z"/>
<path d="M7370 4000 c0 -12 8 -12 35 0 18 8 17 9 -7 9 -16 1 -28 -3 -28 -9z"/>
<path d="M6841 3933 c7 -10 14 -19 15 -21 1 -1 4 6 7 18 4 15 0 20 -15 20 -18
0 -19 -2 -7 -17z"/>
<path d="M7341 3654 c0 -11 3 -14 6 -6 3 7 2 16 -1 19 -3 4 -6 -2 -5 -13z"/>
<path d="M7469 3413 c-13 -16 -12 -17 4 -4 16 13 21 21 13 21 -2 0 -10 -8 -17
-17z"/>
<path d="M6918 3373 c7 -3 16 -2 19 1 4 3 -2 6 -13 5 -11 0 -14 -3 -6 -6z"/>
<path d="M6878 3363 c7 -3 16 -2 19 1 4 3 -2 6 -13 5 -11 0 -14 -3 -6 -6z"/>
<path d="M6828 3353 c7 -3 16 -2 19 1 4 3 -2 6 -13 5 -11 0 -14 -3 -6 -6z"/>
<path d="M6098 3943 c7 -3 16 -2 19 1 4 3 -2 6 -13 5 -11 0 -14 -3 -6 -6z"/>
<path d="M4965 4435 c-5 -2 -62 -15 -126 -30 l-115 -26 0 -32 c0 -33 -3 -84
-30 -395 -8 -101 -13 -186 -11 -189 9 -8 282 69 309 88 52 38 67 77 83 225 9
77 19 179 22 227 5 82 4 89 -17 112 -18 19 -33 25 -64 24 -23 0 -45 -2 -51 -4z"/>
<path d="M4338 3223 c6 -2 18 -2 25 0 6 3 1 5 -13 5 -14 0 -19 -2 -12 -5z"/>
<path d="M4284 3209 c-9 -16 2 -22 21 -11 15 8 16 10 1 15 -8 3 -18 2 -22 -4z"/>
<path d="M5356 2745 c8 -35 10 -39 17 -28 3 5 -1 19 -9 33 l-14 25 6 -30z"/>
<path d="M4512 2700 c0 -14 2 -19 5 -12 2 6 2 18 0 25 -3 6 -5 1 -5 -13z"/>
<path d="M4492 2540 c0 -14 2 -19 5 -12 2 6 2 18 0 25 -3 6 -5 1 -5 -13z"/>
<path d="M3602 2650 c0 -14 2 -19 5 -12 2 6 2 18 0 25 -3 6 -5 1 -5 -13z"/>
<path d="M3321 2434 c0 -11 3 -14 6 -6 3 7 2 16 -1 19 -3 4 -6 -2 -5 -13z"/>
<path d="M3572 2405 c0 -16 2 -22 5 -12 2 9 2 23 0 30 -3 6 -5 -1 -5 -18z"/>
<path d="M3563 2305 c0 -22 2 -30 4 -17 2 12 2 30 0 40 -3 9 -5 -1 -4 -23z"/>
<path d="M2721 2424 c0 -11 3 -14 6 -6 3 7 2 16 -1 19 -3 4 -6 -2 -5 -13z"/>
<path d="M1973 2338 c6 -100 13 -131 29 -122 6 4 8 -2 3 -15 -7 -22 7 -27 38
-16 10 5 6 14 -18 38 -26 26 -34 44 -39 90 -4 31 -5 71 -1 87 5 21 3 30 -6 30
-9 0 -11 -23 -6 -92z"/>
<path d="M2462 2392 c-6 -17 -32 -54 -57 -81 -38 -41 -43 -50 -28 -53 26 -6
83 24 80 42 -2 8 -8 14 -14 13 -6 -1 0 18 14 42 13 25 23 50 21 57 -3 7 -10
-2 -16 -20z"/>
<path d="M2673 2309 c-34 -68 -60 -104 -124 -168 -44 -44 -84 -81 -89 -81 -4
0 -11 -7 -14 -16 -10 -27 96 63 152 129 49 57 128 198 120 215 -2 4 -22 -32
-45 -79z"/>
<path d="M1739 2343 c-13 -17 -13 -17 6 -3 11 8 22 16 24 17 2 2 0 3 -6 3 -6
0 -17 -8 -24 -17z"/>
<path d="M2330 2250 c-12 -7 -10 -9 7 -7 12 0 19 5 17 9 -6 10 -6 10 -24 -2z"/>
<path d="M2283 2234 c-14 -6 -6 -34 10 -34 6 0 7 3 4 7 -4 3 -2 12 4 20 11 13
4 16 -18 7z"/>
<path d="M2198 2203 c7 -3 16 -2 19 1 4 3 -2 6 -13 5 -11 0 -14 -3 -6 -6z"/>
<path d="M2118 2193 c12 -2 32 -2 45 0 12 2 2 4 -23 4 -25 0 -35 -2 -22 -4z"/>
<path d="M1815 1961 c19 -22 66 -51 82 -51 4 1 -5 8 -22 17 -16 8 -41 25 -55
37 l-25 21 20 -24z"/>
<path d="M2240 1950 c-47 -16 -80 -29 -73 -29 16 -1 173 48 173 54 0 8 -9 5
-100 -25z"/>
<path d="M1919 1907 c4 -4 43 -7 87 -5 l79 3 -87 5 c-48 3 -83 1 -79 -3z"/>
<path d="M2118 1913 c7 -3 16 -2 19 1 4 3 -2 6 -13 5 -11 0 -14 -3 -6 -6z"/>
<path d="M2070 7063 c-23 -4 -172 -44 -475 -127 -66 -19 -152 -41 -190 -50
-97 -23 -101 -26 -89 -73 l9 -38 50 3 c55 4 435 94 589 141 116 35 146 58 146
113 0 21 -3 37 -7 37 -5 -1 -19 -4 -33 -6z"/>
<path d="M1875 6671 c-82 -26 -181 -62 -219 -81 l-69 -34 39 -9 c53 -11 157 6
312 53 l127 38 3 41 c3 37 1 41 -20 40 -13 -1 -90 -22 -173 -48z"/>
<path d="M2005 6539 c-128 -21 -464 -123 -512 -154 -23 -16 -31 -57 -15 -82
10 -16 122 5 227 42 61 21 348 105 361 105 10 0 3 78 -8 87 -7 5 -31 6 -53 2z"/>
<path d="M1270 6331 c-71 -20 -198 -68 -217 -84 -19 -15 -15 -52 7 -72 20 -18
24 -18 138 9 191 44 238 77 196 140 -19 30 -34 31 -124 7z"/>
<path d="M1960 6220 c-63 -21 -160 -52 -215 -69 -132 -40 -141 -47 -126 -94
15 -46 18 -46 169 -6 243 63 285 79 320 124 25 31 17 79 -14 82 -10 1 -71 -15
-134 -37z"/>
<path d="M1340 6027 c-96 -29 -181 -56 -187 -60 -17 -10 -17 -58 0 -81 12 -16
17 -16 98 3 95 22 229 65 272 87 15 8 27 21 27 30 0 13 -27 75 -33 73 -1 0
-81 -24 -177 -52z"/>
<path d="M1825 5775 c-55 -18 -170 -59 -255 -90 -85 -31 -184 -66 -219 -77
-35 -11 -73 -30 -86 -44 -14 -15 -25 -20 -31 -14 -13 13 -139 -19 -264 -66
-52 -20 -106 -40 -120 -46 -29 -10 -90 -63 -90 -78 0 -5 17 -10 38 -10 74 0
170 22 327 74 88 30 207 68 265 86 58 17 197 63 310 102 113 38 216 73 230 77
14 4 25 13 24 19 -1 7 -2 25 -2 40 -1 16 -8 36 -14 45 -12 15 -22 13 -113 -18z"/>
<path d="M2030 5370 c-36 -10 -92 -27 -125 -39 -33 -12 -114 -35 -180 -52
-187 -47 -345 -95 -489 -149 -73 -27 -199 -68 -281 -92 -121 -35 -151 -48
-168 -70 -32 -42 -16 -50 87 -43 160 11 233 24 394 69 461 129 710 183 790
172 45 -6 185 23 204 42 7 7 -99 145 -130 170 -20 15 -23 15 -102 -8z"/>
<path d="M2280 5063 c-98 -26 -474 -145 -500 -158 -14 -7 -67 -21 -118 -30
-86 -16 -122 -32 -122 -56 0 -5 7 -12 16 -16 20 -8 167 29 153 38 -13 7 4 11
121 29 97 15 307 70 489 127 l145 45 -25 19 c-29 22 -82 23 -159 2z"/>
<path d="M2350 4974 c-58 -13 -132 -33 -165 -43 -58 -19 -145 -43 -555 -151
-206 -55 -234 -66 -243 -99 -9 -35 16 -45 80 -33 115 21 400 83 473 103 263
70 394 107 537 152 l162 50 -44 24 c-56 29 -106 29 -245 -3z"/>
<path d="M2630 4905 c-88 -42 -1044 -345 -1167 -370 -60 -12 -49 -27 13 -20
123 14 220 36 308 72 56 22 154 49 256 69 173 35 247 54 500 134 144 45 260
75 320 82 24 3 23 4 -15 28 -59 37 -143 39 -215 5z"/>
<path d="M3230 4823 c-25 -2 -103 -21 -175 -43 -71 -21 -206 -59 -300 -84 -93
-25 -219 -60 -280 -77 -60 -17 -141 -39 -180 -49 -38 -9 -110 -29 -160 -43
-135 -39 -414 -114 -465 -125 -56 -12 -411 -104 -503 -130 -65 -19 -127 -59
-109 -71 5 -3 12 -14 15 -25 6 -16 14 -17 65 -11 62 7 243 48 417 95 61 16
164 40 231 54 67 13 172 40 235 60 63 19 229 64 369 100 140 35 298 78 350 95
139 44 453 125 625 161 82 18 174 41 204 52 46 17 51 22 36 31 -19 10 -296 18
-375 10z"/>
<path d="M1328 4743 c6 -2 18 -2 25 0 6 3 1 5 -13 5 -14 0 -19 -2 -12 -5z"/>
<path d="M8250 2919 c-78 -9 -128 -32 -136 -63 -10 -40 9 -55 59 -49 81 11
143 57 135 101 -3 14 -11 16 -58 11z"/>
<path d="M7760 2811 c-206 -49 -230 -61 -230 -118 0 -41 12 -42 135 -8 50 13
116 27 148 31 76 9 123 40 120 79 -2 30 -17 45 -43 44 -8 0 -67 -13 -130 -28z"/>
<path d="M7206 2700 c-39 -12 -76 -49 -76 -75 0 -33 20 -85 33 -85 36 1 104
24 119 40 26 28 25 106 -1 120 -23 12 -35 12 -75 0z"/>
<path d="M6865 2625 c-45 -23 -65 -52 -65 -96 0 -50 31 -73 85 -63 58 11 90
44 89 93 -2 72 -45 98 -109 66z"/>
<path d="M6525 2545 c-40 -21 -55 -43 -55 -80 0 -45 25 -75 63 -75 58 0 107
44 107 97 0 63 -53 89 -115 58z"/>
<path d="M6200 2453 c-35 -13 -50 -37 -50 -77 0 -94 69 -114 148 -43 25 23 30
81 8 110 -13 17 -72 23 -106 10z"/>
<path d="M5870 2354 c-69 -30 -84 -62 -58 -120 11 -24 16 -26 56 -21 84 9 126
73 87 133 -18 28 -36 29 -85 8z"/>
<path d="M5520 2263 c-34 -13 -60 -47 -60 -80 0 -84 107 -99 167 -23 19 23 16
75 -5 93 -18 16 -71 21 -102 10z"/>
<path d="M5255 2124 c-33 -8 -100 -21 -150 -30 -49 -8 -126 -22 -170 -29 -84
-15 -319 -75 -369 -95 -17 -6 -82 -22 -145 -35 -64 -12 -134 -30 -156 -39 -22
-8 -80 -24 -130 -36 -49 -11 -133 -34 -185 -50 -52 -16 -117 -35 -145 -43
l-50 -15 45 -1 c123 -2 347 42 716 140 61 16 167 40 235 53 123 24 339 90 350
108 3 5 50 18 104 29 102 21 135 33 135 49 0 12 -10 12 -85 -6z"/>
</g>
</svg>
